<svg width="13" height="8" viewBox="0 0 13 8" fill="none" xmlns="http://www.w3.org/2000/svg">
<path d="M3.75977 0.359375C3.5957 0.195312 3.44076 0.195312 3.29492 0.359375L0.123047 3.53125C-0.0410156 3.67708 -0.0410156 3.82292 0.123047 3.96875L3.29492 7.14062C3.44076 7.30469 3.5957 7.30469 3.75977 7.14062L3.95117 6.94922C4.11523 6.80339 4.11523 6.64844 3.95117 6.48438L1.6543 4.21484H11.9355C12.1543 4.21484 12.2637 4.10547 12.2637 3.88672V3.61328C12.2637 3.39453 12.1543 3.28516 11.9355 3.28516H1.6543L3.95117 1.01562C4.11523 0.851562 4.11523 0.696615 3.95117 0.550781L3.75977 0.359375Z" fill="#F1C115"/>
</svg>
