<svg width="13" height="8" viewBox="0 0 13 8" fill="none" xmlns="http://www.w3.org/2000/svg">
<path d="M8.50391 0.359375C8.66797 0.195312 8.82292 0.195312 8.96875 0.359375L12.1406 3.53125C12.3047 3.67708 12.3047 3.82292 12.1406 3.96875L8.96875 7.14062C8.82292 7.30469 8.66797 7.30469 8.50391 7.14062L8.3125 6.94922C8.14844 6.80339 8.14844 6.64844 8.3125 6.48438L10.6094 4.21484H0.328125C0.109375 4.21484 0 4.10547 0 3.88672V3.61328C0 3.39453 0.109375 3.28516 0.328125 3.28516H10.6094L8.3125 1.01562C8.14844 0.851562 8.14844 0.696615 8.3125 0.550781L8.50391 0.359375Z" fill="#F1C115"/>
</svg>
