<svg width="20" height="21" viewBox="0 0 20 21" fill="none" xmlns="http://www.w3.org/2000/svg">
<path d="M13.6328 2.53125C15.4818 3.98958 17.3698 5.51302 19.2969 7.10156C19.7656 7.49219 20 7.97396 20 8.54688V18.625C20 19.1458 19.8177 19.5885 19.4531 19.9531C19.0885 20.3177 18.6458 20.5 18.125 20.5H1.875C1.35417 20.5 0.911458 20.3177 0.546875 19.9531C0.182292 19.5885 0 19.1458 0 18.625V8.54688C0 7.97396 0.234375 7.49219 0.703125 7.10156C2.63021 5.51302 4.51823 3.98958 6.36719 2.53125C6.41927 2.47917 6.58854 2.33594 6.875 2.10156C7.1875 1.84115 7.4349 1.64583 7.61719 1.51562C7.79948 1.38542 8.03385 1.22917 8.32031 1.04688C8.60677 0.864583 8.89323 0.734375 9.17969 0.65625C9.46615 0.552083 9.73958 0.5 10 0.5C10.2083 0.5 10.4167 0.526042 10.625 0.578125C10.8333 0.630208 11.0286 0.708333 11.2109 0.8125C11.4193 0.890625 11.6016 0.981771 11.7578 1.08594C11.9401 1.1901 12.1224 1.32031 12.3047 1.47656C12.513 1.60677 12.6823 1.73698 12.8125 1.86719C12.9427 1.97135 13.0859 2.10156 13.2422 2.25781C13.4245 2.38802 13.5547 2.47917 13.6328 2.53125ZM18.125 19.25C18.3073 19.25 18.4505 19.1849 18.5547 19.0547C18.6849 18.9505 18.75 18.8073 18.75 18.625V8.54688C18.75 8.36458 18.6719 8.20833 18.5156 8.07812C16.7188 6.59375 14.8307 5.07031 12.8516 3.50781C12.8255 3.50781 12.6302 3.36458 12.2656 3.07812C11.9271 2.76562 11.6667 2.54427 11.4844 2.41406C11.3021 2.28385 11.0547 2.14062 10.7422 1.98438C10.4557 1.82812 10.2083 1.75 10 1.75C9.79167 1.75 9.53125 1.82812 9.21875 1.98438C8.93229 2.14062 8.69792 2.28385 8.51562 2.41406C8.33333 2.54427 8.0599 2.76562 7.69531 3.07812C7.35677 3.36458 7.17448 3.50781 7.14844 3.50781C5.19531 5.07031 3.30729 6.59375 1.48438 8.07812C1.32812 8.20833 1.25 8.36458 1.25 8.54688V18.625C1.25 18.8073 1.30208 18.9505 1.40625 19.0547C1.53646 19.1849 1.69271 19.25 1.875 19.25H18.125ZM17.7734 10.8125C17.9818 11.0469 17.9557 11.2682 17.6953 11.4766C16.7839 12.2057 15.4297 13.2865 13.6328 14.7188C13.5807 14.7708 13.3984 14.9271 13.0859 15.1875C12.7995 15.4219 12.5651 15.6042 12.3828 15.7344C12.2005 15.8646 11.9661 16.0208 11.6797 16.2031C11.3932 16.3854 11.1068 16.5286 10.8203 16.6328C10.5339 16.7109 10.2604 16.75 10 16.75C9.73958 16.75 9.46615 16.7109 9.17969 16.6328C8.89323 16.5286 8.59375 16.3854 8.28125 16.2031C7.99479 16.0208 7.76042 15.8646 7.57812 15.7344C7.39583 15.6042 7.16146 15.4089 6.875 15.1484C6.58854 14.888 6.41927 14.7448 6.36719 14.7188C4.57031 13.2865 3.21615 12.2057 2.30469 11.4766C2.04427 11.2682 2.01823 11.0469 2.22656 10.8125L2.42188 10.5391C2.60417 10.3047 2.82552 10.2917 3.08594 10.5C3.9974 11.2292 5.35156 12.3099 7.14844 13.7422C7.14844 13.7422 7.33073 13.8984 7.69531 14.2109C8.0599 14.4974 8.33333 14.7057 8.51562 14.8359C8.69792 14.9661 8.93229 15.1094 9.21875 15.2656C9.53125 15.4219 9.79167 15.5 10 15.5C10.2083 15.5 10.4557 15.4219 10.7422 15.2656C11.0547 15.1094 11.3021 14.9661 11.4844 14.8359C11.6667 14.7057 11.9401 14.4974 12.3047 14.2109C12.6693 13.8984 12.8516 13.7422 12.8516 13.7422C14.6484 12.3099 16.0026 11.2292 16.9141 10.5C17.1745 10.2917 17.3958 10.3047 17.5781 10.5391L17.7734 10.8125Z" fill="white"/>
</svg>
