<svg width="459" height="190" viewBox="0 0 459 190" fill="none" xmlns="http://www.w3.org/2000/svg">
<path d="M28.583 55.7672V40.6172H6.969V91.1172H31.815V76.0682C31.815 70.8162 33.633 66.3722 37.067 63.4432C39.693 61.0192 44.339 59.7062 49.692 59.7062C52.823 59.7062 55.651 60.0092 58.58 60.5142V39.9102C56.56 39.7082 55.247 39.5062 51.914 39.5062C39.693 39.5062 31.411 45.8692 28.583 55.7672ZM81.5174 92.7322C91.9724 92.7322 100.047 89.3322 102.597 83.8072C102.597 86.1022 102.852 89.5022 103.107 91.1172H123.847C123.507 88.3122 123.252 83.8072 123.252 79.0472V66.8072C123.252 53.7172 114.582 47.0022 93.3324 47.0022C75.8224 47.0022 63.1574 53.2072 61.2024 63.4072H83.4724C84.1524 60.1772 87.8074 58.3072 93.3324 58.3072C98.6024 58.3072 102.002 59.8372 102.002 63.3222V64.4272L82.1124 65.6172C74.3774 66.0422 69.4474 67.1472 66.1324 69.1022C62.2224 71.3972 60.2674 74.7972 60.2674 78.9622C60.2674 87.8872 67.7474 92.7322 81.5174 92.7322ZM89.6774 81.8522C84.7474 81.8522 81.8574 80.2372 81.8574 77.5172C81.8574 74.9672 84.0674 73.8622 89.5074 73.4372L102.257 72.4172V73.5222C102.257 78.5372 97.3274 81.8522 89.6774 81.8522ZM133.175 40.6172V91.1172H158.021V69.6042C158.021 60.8172 161.758 56.0702 168.929 56.0702C176.302 56.0702 179.837 60.5142 179.837 69.3012V91.1172H204.582V69.6042C204.582 60.9182 208.521 56.0702 215.591 56.0702C222.56 56.0702 226.398 60.8172 226.398 69.3012V91.1172H251.244V65.8672C251.244 48.3942 242.154 38.6982 225.893 38.6982C214.985 38.6982 206.602 43.0412 201.552 51.3232C197.613 43.0412 189.937 38.6982 179.736 38.6982C169.232 38.6982 161.253 43.2432 157.617 51.5252V40.6172H133.175Z" fill="#F1C115"/>
<path d="M13.552 184L15.2 184L12.432 179.008C13.952 178.608 14.848 177.488 14.848 175.952C14.848 173.84 13.456 172.64 11.008 172.64L7.36 172.64L7.36 184L8.848 184L8.848 179.248L10.928 179.248L13.552 184ZM8.848 173.888L10.944 173.888C12.464 173.888 13.28 174.624 13.28 175.984C13.28 177.328 12.464 178.064 10.944 178.064L8.848 178.064L8.848 173.888ZM39.9059 184L41.3779 184L37.7299 172.64L36.0339 172.64L32.3859 184L33.8579 184L34.8979 180.72L38.8499 180.72L39.9059 184ZM36.8659 173.952L36.8979 173.952C37.2019 175.296 37.7299 177.184 38.4499 179.44L35.2979 179.44C36.0179 177.184 36.5619 175.296 36.8659 173.952ZM64.4838 176.832C64.6438 176.16 64.8998 174.704 64.9958 173.904L65.0918 173.904C65.0758 174.624 65.0598 175.984 65.0598 176.944L65.0598 184L66.4678 184L66.4678 172.64L64.3078 172.64L63.0278 178.576C62.9638 178.928 62.8838 179.36 62.8518 179.584L62.7558 179.584C62.7238 179.36 62.6438 178.928 62.5798 178.576L61.2998 172.64L59.1398 172.64L59.1398 184L60.5478 184L60.5478 176.944C60.5478 175.984 60.5318 174.624 60.5158 173.904L60.6118 173.904C60.7078 174.704 60.9638 176.16 61.1238 176.832L62.1158 181.28L63.4918 181.28L64.4838 176.832ZM92.3096 173.84L92.3096 172.64L85.1416 172.64L85.1416 173.84L87.9736 173.84L87.9736 182.8L85.1416 182.8L85.1416 184L92.3096 184L92.3096 182.8L89.4616 182.8L89.4616 173.84L92.3096 173.84ZM117.24 184L118.888 184L116.12 179.008C117.64 178.608 118.536 177.488 118.536 175.952C118.536 173.84 117.144 172.64 114.696 172.64L111.048 172.64L111.048 184L112.536 184L112.536 179.248L114.616 179.248L117.24 184ZM112.536 173.888L114.632 173.888C116.152 173.888 116.968 174.624 116.968 175.984C116.968 177.328 116.152 178.064 114.632 178.064L112.536 178.064L112.536 173.888ZM140.569 184.272C143.337 184.272 144.713 182.208 144.713 178.832L144.713 177.808C144.713 174.432 143.337 172.368 140.569 172.368C137.801 172.368 136.425 174.432 136.425 177.808L136.425 178.832C136.425 182.208 137.801 184.272 140.569 184.272ZM140.569 182.992C138.793 182.992 137.977 181.68 137.977 178.832L137.977 177.808C137.977 174.96 138.793 173.648 140.569 173.648C142.345 173.648 143.161 174.96 143.161 177.808L143.161 178.832C143.161 181.68 142.345 182.992 140.569 182.992ZM220.015 176.832C220.175 176.16 220.431 174.704 220.527 173.904L220.623 173.904C220.607 174.624 220.591 175.984 220.591 176.944L220.591 184L221.999 184L221.999 172.64L219.839 172.64L218.559 178.576C218.495 178.928 218.415 179.36 218.383 179.584L218.287 179.584C218.255 179.36 218.175 178.928 218.111 178.576L216.831 172.64L214.671 172.64L214.671 184L216.079 184L216.079 176.944C216.079 175.984 216.063 174.624 216.047 173.904L216.143 173.904C216.239 174.704 216.495 176.16 216.655 176.832L217.647 181.28L219.023 181.28L220.015 176.832ZM247.617 172.64L240.977 172.64L240.977 184L247.729 184L247.729 182.72L242.465 182.72L242.465 178.8L247.345 178.8L247.345 177.552L242.465 177.552L242.465 173.92L247.617 173.92L247.617 172.64ZM271.811 180.368L268.467 172.64L266.515 172.64L266.515 184L268.003 184L268.003 175.456C268.003 175.12 268.003 174.784 267.971 174.48L268.019 174.48C268.019 174.48 268.259 175.2 268.531 175.824L272.099 184L273.843 184L273.843 172.64L272.355 172.64L272.355 180.64C272.355 181.056 272.355 181.472 272.387 181.856L272.355 181.856C272.291 181.616 272.115 181.088 271.811 180.368ZM292.357 184L295.653 184C298.645 184 300.517 181.552 300.517 178.304C300.517 175.024 298.805 172.64 295.685 172.64L292.357 172.64L292.357 184ZM293.845 182.752L293.845 173.888L295.669 173.888C297.877 173.888 298.981 175.888 298.981 178.304C298.981 180.656 297.781 182.752 295.637 182.752L293.845 182.752ZM322.023 184.272C324.791 184.272 326.167 182.208 326.167 178.832L326.167 177.808C326.167 174.432 324.791 172.368 322.023 172.368C319.255 172.368 317.879 174.432 317.879 177.808L317.879 178.832C317.879 182.208 319.255 184.272 322.023 184.272ZM322.023 182.992C320.247 182.992 319.431 181.68 319.431 178.832L319.431 177.808C319.431 174.96 320.247 173.648 322.023 173.648C323.799 173.648 324.615 174.96 324.615 177.808L324.615 178.832C324.615 181.68 323.799 182.992 322.023 182.992ZM344.072 182.624L344.072 184L351.816 184L351.816 182.72L345.624 182.72L351.592 174.016L351.592 172.64L344.28 172.64L344.28 173.92L350.024 173.92L344.072 182.624ZM376.89 184L378.362 184L374.714 172.64L373.018 172.64L369.37 184L370.842 184L371.882 180.72L375.834 180.72L376.89 184ZM373.85 173.952L373.882 173.952C374.186 175.296 374.714 177.184 375.434 179.44L372.282 179.44C373.002 177.184 373.546 175.296 373.85 173.952Z" fill="white"/>
</svg>
