<svg width="357" height="160" viewBox="0 0 357 160" fill="none" xmlns="http://www.w3.org/2000/svg">
<path d="M82.4428 66.6993C80.8463 66.7607 79.8024 66.7914 79.3112 66.7914C78.82 66.7914 78.513 66.7914 78.3902 66.7914C78.0218 66.7914 77.8376 66.6686 77.8376 66.423C77.8376 66.116 78.0218 65.9625 78.3902 65.9625C79.2498 65.9625 80.0174 65.9625 80.6928 65.9625C81.3682 65.9011 81.9208 65.8397 82.3507 65.7783C82.9647 65.2871 83.3945 64.4274 83.6401 63.1994C83.9471 61.9713 84.1621 59.7915 84.2849 56.66C84.3463 54.2039 84.377 51.3486 84.377 48.0943C84.4384 44.7785 84.4691 41.8005 84.4691 39.1602V25.9892C84.4691 24.0858 84.4691 22.4893 84.4691 21.1998C84.4691 19.849 84.4691 18.6516 84.4691 17.6078C84.4077 15.6429 84.3463 14.0157 84.2849 12.7262C84.2235 11.3754 84.1621 10.2394 84.1007 9.31837C83.9164 7.16927 83.548 5.7263 82.9954 4.98947C82.5042 4.19123 81.3682 3.79211 79.5875 3.79211H78.206C77.8376 3.79211 77.6534 3.66931 77.6534 3.4237C77.6534 3.11668 77.8376 2.96318 78.206 2.96318C78.6972 2.96318 79.4033 2.96318 80.3244 2.96318C81.3068 2.96318 82.8726 2.99388 85.0217 3.05528C86.3726 3.11668 87.2936 3.14738 87.7848 3.14738C88.3374 3.14738 88.7059 3.14738 88.8901 3.14738C89.1357 3.14738 89.6269 3.14738 90.3637 3.14738C91.162 3.14738 92.6971 3.11668 94.969 3.05528C97.5479 2.99388 99.2979 2.96318 100.219 2.96318C101.201 2.96318 101.846 2.96318 102.153 2.96318C110.074 2.96318 116.061 4.22193 120.113 6.73945C124.166 9.25697 126.192 12.9718 126.192 17.8841C126.192 21.7524 124.227 25.0375 120.298 27.7392C116.429 30.441 111.149 32.2216 104.456 33.0813C109.614 33.1427 113.451 34.1865 115.969 36.2128C118.486 38.2391 121.065 42.261 123.705 48.2785C124.872 50.9802 125.855 53.1907 126.653 54.91C127.451 56.5679 128.157 57.9801 128.771 59.1468C130.183 61.7871 131.473 63.5985 132.64 64.5809C133.806 65.502 135.464 65.9625 137.613 65.9625H138.258C138.688 65.9625 138.872 66.116 138.811 66.423C138.811 66.6686 138.596 66.7914 138.166 66.7914H134.85C133.929 66.7914 133.008 66.7914 132.087 66.7914C131.166 66.8528 129.999 66.9449 128.587 67.0677C127.85 67.1292 127.328 67.1599 127.021 67.1599C126.776 67.1599 126.561 67.1599 126.377 67.1599C125.271 67.1599 124.35 67.0063 123.613 66.6993C122.877 66.3309 122.17 65.7476 121.495 64.9493C120.513 63.7827 119.469 62.0941 118.363 59.8836C117.32 57.6117 116.122 54.6951 114.771 51.1337C113.666 48.1864 112.653 45.761 111.732 43.8575C110.872 41.954 110.043 40.3882 109.245 39.1602C107.956 37.1953 106.543 35.8137 105.008 35.0155C103.473 34.2172 101.171 33.7874 98.1005 33.726H93.7716V42.9364C93.7716 44.8399 93.7716 46.4978 93.7716 47.9101C93.7716 49.2609 93.7716 50.489 93.7716 51.5942C93.833 53.6205 93.8944 55.3398 93.9558 56.7521C94.0172 58.1029 94.0786 59.2696 94.14 60.252C94.3856 62.4625 94.754 63.9669 95.2453 64.7651C95.7365 65.5634 96.9031 65.9625 98.7452 65.9625H100.587C100.956 65.9625 101.14 66.116 101.14 66.423C101.14 66.6686 100.956 66.7914 100.587 66.7914C100.035 66.7914 99.2672 66.7914 98.2847 66.7914C97.3023 66.73 95.6444 66.6993 93.3111 66.6993C91.8374 66.6379 90.855 66.6072 90.3637 66.6072C89.8725 66.6072 89.5348 66.6072 89.3506 66.6072C89.0436 66.6072 88.4295 66.6072 87.5085 66.6072C86.5875 66.6072 84.8989 66.6379 82.4428 66.6993ZM93.8637 8.85785C93.8637 9.59468 93.833 10.485 93.7716 11.5289C93.7716 12.5727 93.7716 13.985 93.7716 15.7657V32.7129C94.3856 32.6515 95.1532 32.6208 96.0742 32.6208C96.9952 32.6208 98.6531 32.6208 101.048 32.6208C105.346 32.6208 108.846 31.3006 111.548 28.6603C114.311 26.0199 115.692 22.4586 115.692 17.9762C115.692 13.1867 114.464 9.62538 112.008 7.29208C109.614 4.95877 105.899 3.79211 100.864 3.79211H96.9031C95.6751 3.79211 94.8768 4.12983 94.5084 4.80526C94.2014 5.48069 93.9865 6.83155 93.8637 8.85785Z" fill="white"/>
<path d="M165.167 53.9889C163.509 57.3661 160.899 60.5283 157.338 63.4757C153.838 66.3616 150.43 67.8046 147.114 67.8046C143.737 67.8046 140.943 66.8221 138.733 64.8572C136.522 62.8924 135.417 60.4362 135.417 57.4889C135.417 54.0503 137.259 50.8574 140.943 47.9101C144.628 44.9627 150.522 41.9233 158.627 38.7917L165.812 36.0286C165.689 30.3795 164.952 26.3884 163.601 24.0551C162.25 21.7217 160.009 20.5551 156.877 20.5551C155.649 20.5551 154.544 20.77 153.562 21.1998C152.579 21.6296 151.72 22.2437 150.983 23.0419C150.369 23.6559 149.785 24.3928 149.233 25.2524C148.742 26.1121 148.097 27.4629 147.299 29.305C146.992 30.1032 146.746 30.6866 146.562 31.055C146.378 31.362 146.224 31.6383 146.101 31.8839C145.671 32.7436 145.057 33.3576 144.259 33.726C143.461 34.0944 142.356 34.2786 140.943 34.2786C139.531 34.2786 138.426 34.033 137.628 33.5418C136.829 32.9892 136.43 32.283 136.43 31.4234C136.43 30.5638 136.737 29.6734 137.351 28.7524C138.027 27.7699 138.948 26.9103 140.114 26.1735C142.693 24.3928 145.702 22.8884 149.141 21.6603C152.641 20.4323 155.741 19.8183 158.443 19.8183C163.847 19.8183 167.93 21.2305 170.693 24.0551C173.518 26.8182 174.93 30.9629 174.93 36.4891C174.93 37.5944 174.899 38.9452 174.838 40.5417C174.838 42.1382 174.776 44.625 174.654 48.0022C174.531 50.7039 174.439 52.6074 174.377 53.7126C174.377 54.7565 174.377 55.6161 174.377 56.2915C174.377 58.9319 174.561 60.8047 174.93 61.9099C175.298 63.0152 175.912 63.5678 176.772 63.5678C177.509 63.5678 178.338 63.0152 179.259 61.9099C180.241 60.8047 181.039 59.5459 181.653 58.1336C181.899 57.7652 182.206 57.7038 182.575 57.9494C182.943 58.1336 183.004 58.4406 182.759 58.8705C181.408 60.9582 179.504 62.9538 177.048 64.8572C174.654 66.7607 172.535 67.7125 170.693 67.7125C168.728 67.7125 167.254 67.1291 166.272 65.9625C165.351 64.7958 164.89 62.9845 164.89 60.5283C164.89 59.3617 164.921 58.1643 164.983 56.9363C165.044 55.7082 165.105 54.7258 165.167 53.9889ZM144.167 54.081C144.167 56.4758 144.996 58.5021 146.654 60.1599C148.373 61.7564 150.522 62.5853 153.101 62.6467C155.496 62.6467 157.921 61.5108 160.377 59.2389C162.833 56.9056 164.461 54.5416 165.259 52.1469C165.443 48.2785 165.566 45.1469 165.627 42.7522C165.75 40.3575 165.812 38.7303 165.812 37.8707V36.6733L158.812 39.7128C153.163 42.1075 149.294 44.318 147.206 46.3443C145.18 48.3706 144.167 50.9495 144.167 54.081Z" fill="white"/>
<path d="M184.538 66.6993C182.819 66.7607 181.529 66.7914 180.67 66.7914C179.872 66.7914 179.196 66.7914 178.644 66.7914C178.275 66.7914 178.091 66.6686 178.091 66.423C178.091 66.116 178.275 65.9625 178.644 65.9625C180.731 65.9625 181.99 65.4099 182.42 64.3046C182.85 63.138 183.065 60.3134 183.065 55.831V32.8971C183.065 31.8532 182.727 30.7787 182.051 29.6734C181.376 28.5068 180.301 27.248 178.828 25.8971C178.705 25.7743 178.644 25.6822 178.644 25.6208C178.644 25.498 178.705 25.4059 178.828 25.3445C179.994 24.9147 181.622 24.1472 183.709 23.0419C185.797 21.8753 187.179 20.9542 187.854 20.2788C187.977 20.156 188.069 20.1253 188.13 20.1867C188.192 20.1867 188.284 20.2481 188.407 20.3709C189.389 21.2919 190.249 22.7042 190.986 24.6077C191.722 26.5112 192.091 28.3533 192.091 30.1339C194.731 26.5112 197.371 23.9015 200.012 22.3051C202.652 20.6472 205.538 19.8183 208.67 19.8183C212.292 19.8183 215.301 20.7086 217.696 22.4893C220.09 24.27 221.687 26.8182 222.485 30.1339C225.125 26.5726 227.797 23.9629 230.498 22.3051C233.2 20.6472 236.117 19.8183 239.248 19.8183C244.16 19.8183 247.875 21.384 250.393 24.5156C252.972 27.6471 254.261 32.283 254.261 38.4233V60.8047C254.261 63.1994 254.507 64.673 254.998 65.2257C255.489 65.7783 256.748 66.0239 258.774 65.9625C259.143 65.9625 259.327 66.116 259.327 66.423C259.327 66.6686 259.143 66.7914 258.774 66.7914C258.467 66.7914 258.007 66.7914 257.393 66.7914C256.84 66.7914 255.827 66.7607 254.353 66.6993C252.388 66.6379 250.976 66.6072 250.116 66.6072C249.318 66.6072 248.673 66.6072 248.182 66.6072C247.998 66.6072 247.691 66.6072 247.261 66.6072C246.831 66.6072 246.095 66.6379 245.051 66.6993C243.331 66.7607 242.073 66.7914 241.274 66.7914C240.476 66.7914 239.801 66.7914 239.248 66.7914C238.88 66.7914 238.696 66.6686 238.696 66.423C238.696 66.116 238.88 65.9625 239.248 65.9625C242.011 65.9625 243.669 65.502 244.222 64.5809C244.774 63.5985 245.051 60.8661 245.051 56.3837V37.7786C245.051 33.112 244.16 29.5506 242.38 27.0945C240.599 24.6384 238.081 23.4103 234.827 23.4103C232.494 23.4103 230.468 23.9322 228.748 24.9761C227.029 26.0199 225.064 28.0769 222.854 31.1471V60.8047C222.854 62.9538 223.13 64.366 223.683 65.0415C224.297 65.7169 225.74 66.0239 228.011 65.9625C228.38 65.9625 228.564 66.116 228.564 66.423C228.564 66.6686 228.38 66.7914 228.011 66.7914C227.889 66.7914 227.582 66.7914 227.09 66.7914C226.599 66.7914 225.617 66.7607 224.143 66.6993C221.748 66.6993 220.06 66.6993 219.077 66.6993C218.156 66.6379 217.542 66.6072 217.235 66.6072C217.051 66.6072 216.744 66.6072 216.314 66.6072C215.946 66.6072 215.209 66.6379 214.104 66.6993C212.446 66.7607 211.218 66.7914 210.419 66.7914C209.621 66.7914 208.946 66.7914 208.393 66.7914C208.025 66.7914 207.841 66.6686 207.841 66.423C207.841 66.116 208.025 65.9625 208.393 65.9625C210.972 65.9625 212.507 65.5327 212.998 64.673C213.49 63.752 213.735 60.9889 213.735 56.3837V37.7786C213.735 33.0506 212.937 29.4892 211.341 27.0945C209.744 24.6384 207.38 23.4103 204.249 23.4103C201.854 23.4103 199.766 23.9936 197.985 25.1603C196.205 26.2656 194.271 28.2304 192.183 31.055V65.9625H197.433C197.801 65.9625 197.985 66.116 197.985 66.423C197.985 66.6686 197.801 66.7914 197.433 66.7914C197.31 66.7914 197.034 66.7914 196.604 66.7914C196.174 66.7914 195.284 66.7607 193.933 66.6993C191.845 66.6993 190.371 66.6993 189.512 66.6993C188.652 66.6379 188.069 66.6072 187.762 66.6072C187.578 66.6072 187.271 66.6072 186.841 66.6072C186.411 66.6072 185.643 66.6379 184.538 66.6993Z" fill="white"/>
<path d="M272.611 6.27893C272.611 7.9368 271.997 9.37977 270.769 10.6078C269.541 11.7745 268.067 12.3578 266.348 12.3578C264.628 12.3578 263.155 11.7745 261.927 10.6078C260.76 9.37977 260.177 7.9368 260.177 6.27893C260.177 4.55965 260.76 3.08598 261.927 1.85792C263.155 0.629867 264.628 0.0158386 266.348 0.0158386C268.067 0.0158386 269.541 0.629867 270.769 1.85792C271.997 3.08598 272.611 4.55965 272.611 6.27893ZM263.4 66.6993C261.313 66.7607 259.808 66.7914 258.887 66.7914C257.966 66.7914 257.229 66.7914 256.677 66.7914C256.308 66.7914 256.124 66.6686 256.124 66.423C256.124 66.116 256.308 65.9625 256.677 65.9625C259.133 65.9625 260.668 65.502 261.282 64.5809C261.957 63.5985 262.295 60.9582 262.295 56.66V32.5286C262.295 29.3971 261.988 27.4322 261.374 26.634C260.76 25.8357 259.164 25.7129 256.585 26.2656C256.216 26.3884 255.971 26.327 255.848 26.0813C255.786 25.8357 255.94 25.6515 256.308 25.5287C258.396 25.0375 260.668 24.3007 263.124 23.3182C265.58 22.2744 267.821 21.1077 269.848 19.8183C270.032 19.6955 270.339 19.7262 270.769 19.9104C271.26 20.0946 271.505 20.2788 271.505 20.463V56.66C271.505 61.0196 271.812 63.6599 272.427 64.5809C273.102 65.502 274.606 65.9625 276.94 65.9625C277.308 65.9625 277.492 66.116 277.492 66.423C277.492 66.6686 277.308 66.7914 276.94 66.7914C276.387 66.7914 275.65 66.7914 274.729 66.7914C273.869 66.7914 272.488 66.7607 270.584 66.6993C269.356 66.6379 268.497 66.6072 268.006 66.6072C267.576 66.6072 267.269 66.6072 267.084 66.6072C266.9 66.6072 266.563 66.6072 266.071 66.6072C265.58 66.6072 264.69 66.6379 263.4 66.6993Z" fill="white"/>
<path d="M282.016 66.6993C279.928 66.7607 278.424 66.7914 277.503 66.7914C276.582 66.7914 275.845 66.7914 275.293 66.7914C274.924 66.7914 274.74 66.6686 274.74 66.423C274.74 66.116 274.924 65.9625 275.293 65.9625C277.073 65.9625 278.24 65.7169 278.793 65.2257C279.345 64.7344 279.714 63.8441 279.898 62.5546C280.021 61.8178 280.113 60.9275 280.174 59.8836C280.235 58.8398 280.266 57.4889 280.266 55.831V32.8971C280.266 31.8532 279.928 30.7787 279.253 29.6734C278.578 28.5068 277.503 27.248 276.029 25.8971C275.907 25.7743 275.845 25.6822 275.845 25.6208C275.845 25.498 275.907 25.4059 276.029 25.3445C277.135 24.9147 278.67 24.1472 280.635 23.0419C282.661 21.8753 284.042 20.9542 284.779 20.2788C284.902 20.156 284.994 20.1253 285.056 20.1867C285.117 20.1867 285.209 20.2481 285.332 20.3709C286.376 21.3533 287.297 22.9805 288.095 25.2524C288.893 27.5243 289.292 29.7655 289.292 31.976V32.4365C289.722 30.2874 290.398 28.4147 291.319 26.8182C292.24 25.1603 293.437 23.748 294.911 22.5814C295.832 21.6603 296.845 20.9849 297.95 20.5551C299.117 20.0639 300.406 19.8183 301.819 19.8183C303.231 19.8183 304.336 20.0025 305.134 20.3709C305.933 20.6779 306.332 21.1691 306.332 21.8445C306.332 23.0726 305.748 24.4542 304.582 25.9892C303.476 27.5243 302.248 28.2918 300.898 28.2918H296.937C295.156 28.2918 293.806 28.4147 292.884 28.6603C292.025 28.8445 291.349 29.2129 290.858 29.7655C290.306 30.441 289.906 31.4848 289.661 32.8971C289.477 34.3093 289.385 36.4584 289.385 39.3444V65.9625H295.463C295.832 65.9625 296.016 66.116 296.016 66.423C296.016 66.6686 295.832 66.7914 295.463 66.7914C295.341 66.7914 295.064 66.7914 294.634 66.7914C294.205 66.7914 293.314 66.7607 291.963 66.6993C289.814 66.6993 288.31 66.6993 287.45 66.6993C286.591 66.6379 286.007 66.6072 285.7 66.6072C285.516 66.6072 285.178 66.6072 284.687 66.6072C284.196 66.6072 283.306 66.6379 282.016 66.6993Z" fill="white"/>
<path d="M341.744 60.4362C339.349 62.7695 336.647 64.5809 333.638 65.8704C330.691 67.0984 327.59 67.7125 324.336 67.7125C317.459 67.7125 311.81 65.5941 307.389 61.3573C303.029 57.0591 300.849 51.5021 300.849 44.6864C300.849 37.7479 303.244 31.8839 308.033 27.0945C312.823 22.2437 318.748 19.8183 325.81 19.8183C332.748 19.8183 338.366 21.9674 342.665 26.2656C347.024 30.5638 349.204 36.1821 349.204 43.1206C349.204 46.1908 348.529 49.2609 347.178 52.3311C345.888 55.3398 344.077 58.0415 341.744 60.4362ZM311.165 43.1206C311.165 49.7521 312.516 55.3398 315.218 59.8836C317.981 64.4274 321.542 66.6993 325.902 66.6993C330.2 66.6993 333.454 64.8265 335.665 61.081C337.937 57.274 339.073 51.7784 339.073 44.5943C339.073 37.9628 337.722 32.3444 335.02 27.7392C332.38 23.0726 328.941 20.7393 324.704 20.7393C320.161 20.7393 316.753 22.6121 314.481 26.3577C312.27 30.0418 311.165 35.6295 311.165 43.1206Z" fill="white"/>
<path d="M6.07898 158.607C4.85092 158.669 3.89918 158.73 3.22375 158.791C2.54832 158.791 1.96499 158.791 1.47377 158.791C1.10535 158.791 0.921143 158.669 0.921143 158.423C0.921143 158.116 1.10535 157.963 1.47377 157.963H1.93429C4.02199 157.901 5.46495 157.134 6.26319 155.66C7.12283 154.125 7.73686 151.607 8.10528 148.107C8.28949 146.449 8.41229 144.546 8.47369 142.397C8.5965 140.186 8.6579 137.7 8.6579 134.936C8.6579 132.787 8.6579 130.239 8.6579 127.292C8.6579 124.344 8.6886 119.954 8.75001 114.121C8.75001 110.437 8.75001 107.919 8.75001 106.568C8.75001 105.156 8.75001 104.051 8.75001 103.253C8.75001 102.209 8.6272 101.318 8.38159 100.582C8.19738 99.7833 7.89037 99.1693 7.46055 98.7394C6.60091 97.757 5.67986 97.0202 4.69742 96.5289C3.77637 95.9763 2.79393 95.7 1.75008 95.7H1.38166C1.07465 95.7 0.921143 95.5772 0.921143 95.3316C0.921143 95.086 1.07465 94.9632 1.38166 94.9632C4.14479 94.9632 6.63161 94.9325 8.84211 94.8711C11.0526 94.7483 13.0482 94.5641 14.8289 94.3184C15.0745 94.257 15.228 94.2263 15.2894 94.2263C15.4122 94.2263 15.5043 94.2263 15.5657 94.2263C15.8727 94.2263 16.0876 94.2877 16.2105 94.4105C16.3947 94.5334 16.5175 94.7176 16.5789 94.9632C17.3771 96.3754 18.0525 97.5728 18.6052 98.5552C19.2192 99.4763 19.7718 100.336 20.263 101.134L39.7891 131.713L56.9205 103.621C57.3504 102.884 57.8109 102.117 58.3021 101.318C58.7933 100.459 59.5916 99.0465 60.6968 97.0816C61.2494 96.1605 61.7714 95.4851 62.2626 95.0553C62.7538 94.6255 63.2757 94.4105 63.8284 94.4105C64.074 94.4105 64.4117 94.4412 64.8415 94.5027C65.3327 94.5027 66.2538 94.5334 67.6046 94.5948C70.0608 94.7176 71.9028 94.8097 73.1309 94.8711C74.3589 94.9325 75.3721 94.9632 76.1703 94.9632C76.5388 94.9632 76.723 95.1167 76.723 95.4237C76.723 95.6693 76.5388 95.7921 76.1703 95.7921H74.973C73.1923 95.7921 72.0563 96.1912 71.5651 96.9895C71.0739 97.7263 70.7055 99.1386 70.4599 101.226C70.3985 102.209 70.3371 103.375 70.2757 104.726C70.2143 106.016 70.1529 107.643 70.0915 109.608C70.0915 110.652 70.0915 111.849 70.0915 113.2C70.0915 114.551 70.0915 116.147 70.0915 117.989V135.95C70.0915 137.792 70.0915 139.388 70.0915 140.739C70.0915 142.09 70.0915 143.287 70.0915 144.331C70.1529 146.235 70.2143 147.862 70.2757 149.213C70.3371 150.502 70.3985 151.607 70.4599 152.528C70.7055 154.616 71.0739 156.059 71.5651 156.857C72.1177 157.594 73.2844 157.963 75.0651 157.963H76.1703C76.5388 157.963 76.723 158.116 76.723 158.423C76.723 158.669 76.5388 158.791 76.1703 158.791C75.6177 158.791 74.8195 158.791 73.7756 158.791C72.7318 158.73 70.9818 158.669 68.5257 158.607C66.9906 158.546 65.9468 158.515 65.3941 158.515C64.9029 158.515 64.5652 158.515 64.381 158.515C64.1968 158.515 63.8591 158.515 63.3678 158.515C62.8766 158.515 61.9249 158.546 60.5126 158.607C58.4249 158.669 56.8898 158.73 55.9074 158.791C54.9864 158.791 54.2802 158.791 53.789 158.791C53.4206 158.791 53.2364 158.669 53.2364 158.423C53.2364 158.116 53.4206 157.963 53.789 157.963H55.539C57.4425 157.963 58.6705 157.563 59.2231 156.765C59.7758 155.967 60.1749 154.524 60.4205 152.436C60.5433 151.454 60.6354 150.256 60.6968 148.844C60.7582 147.432 60.7889 145.713 60.7889 143.686C60.8503 142.52 60.881 141.261 60.881 139.91C60.881 138.498 60.881 136.84 60.881 134.936V102.239C60.881 101.625 60.8503 101.226 60.7889 101.042C60.7275 100.796 60.6047 100.674 60.4205 100.674C60.2977 100.674 60.0828 100.858 59.7758 101.226C59.5302 101.533 58.9161 102.516 57.9337 104.174L36.8418 138.529C36.3506 139.327 36.0129 139.818 35.8287 140.002C35.7059 140.125 35.5831 140.186 35.4602 140.186H34.8155C34.7541 140.186 34.662 140.156 34.5392 140.094C34.4778 140.033 34.2936 139.757 33.9866 139.265L9.94736 101.503L9.85526 134.936C9.85526 137.822 9.94736 140.463 10.1316 142.857C10.3158 145.191 10.5921 147.248 10.9605 149.028C11.6359 152.099 12.6491 154.37 14 155.844C15.3508 157.256 17.3157 157.963 19.8946 157.963H21.1841C21.4911 157.963 21.6446 158.116 21.6446 158.423C21.6446 158.669 21.4911 158.791 21.1841 158.791C20.5701 158.791 19.5876 158.791 18.2367 158.791C16.9473 158.791 14.8596 158.73 11.9737 158.607C10.7456 158.546 9.91666 158.515 9.48684 158.515C9.11842 158.515 8.84211 158.515 8.6579 158.515C8.47369 158.515 8.19738 158.515 7.82896 158.515C7.52195 158.515 6.93862 158.546 6.07898 158.607Z" fill="white"/>
<path d="M112.636 155.291C110.302 156.827 107.969 157.963 105.636 158.699C103.364 159.375 100.969 159.712 98.4516 159.712C91.5131 159.712 85.9255 157.686 81.6887 153.634C77.4519 149.52 75.3335 144.178 75.3335 137.607C75.3335 130.853 78.0352 124.866 83.4387 119.647C88.8421 114.428 94.9824 111.818 101.86 111.818C107.14 111.818 111.223 112.985 114.109 115.318C117.057 117.652 118.408 120.476 118.162 123.792C118.039 125.02 117.548 125.88 116.688 126.371C115.89 126.801 114.57 127.015 112.728 127.015H83.8992C83.715 127.875 83.5615 128.796 83.4387 129.779C83.3772 130.7 83.3465 131.682 83.3465 132.726C83.3465 138.498 85.3728 143.257 89.4254 147.002C93.478 150.748 98.6052 152.62 104.807 152.62C109.965 152.62 114.386 151.055 118.07 147.923C121.815 144.792 124.886 140.064 127.28 133.739C127.464 133.248 127.649 133.033 127.833 133.094C128.079 133.156 128.109 133.432 127.925 133.923C126.267 138.529 124.087 142.704 121.386 146.449C118.745 150.195 115.829 153.142 112.636 155.291ZM108.307 121.673C108.307 119.463 107.416 117.559 105.636 115.963C103.917 114.366 101.645 113.568 98.8201 113.568C95.0131 113.568 91.8201 114.704 89.2412 116.976C86.6623 119.187 84.9123 122.318 83.9913 126.371C85.8334 126.371 87.7061 126.34 89.6096 126.279C91.5131 126.217 94.0306 126.156 97.1622 126.094C99.0043 126.033 100.355 126.002 101.215 126.002C102.074 125.941 102.873 125.91 103.609 125.91C104.285 125.849 104.991 125.726 105.728 125.542C106.526 125.358 107.048 125.173 107.294 124.989C107.601 124.682 107.846 124.252 108.03 123.7C108.215 123.086 108.307 122.41 108.307 121.673Z" fill="white"/>
<path d="M124.367 158.699C122.647 158.761 121.389 158.791 120.59 158.791C119.792 158.791 119.117 158.791 118.564 158.791C118.196 158.791 118.012 158.669 118.012 158.423C118.012 158.116 118.196 157.963 118.564 157.963C120.468 157.963 121.634 157.379 122.064 156.213C122.555 155.046 122.801 152.252 122.801 147.831V124.897C122.801 123.853 122.463 122.779 121.788 121.673C121.112 120.507 120.038 119.248 118.564 117.897C118.441 117.774 118.38 117.682 118.38 117.621C118.38 117.498 118.441 117.406 118.564 117.345C119.731 116.915 121.358 116.147 123.446 115.042C125.533 113.875 126.915 112.954 127.59 112.279C127.713 112.156 127.805 112.125 127.867 112.187C127.928 112.187 128.02 112.248 128.143 112.371C129.125 113.292 129.985 114.704 130.722 116.608C131.52 118.511 131.919 120.323 131.919 122.042C134.498 118.542 137.169 115.963 139.932 114.305C142.696 112.647 145.674 111.818 148.867 111.818C153.779 111.818 157.463 113.384 159.919 116.516C162.437 119.586 163.695 124.222 163.695 130.423V149.765C163.695 152.958 163.941 155.138 164.432 156.305C164.923 157.471 166.121 158.024 168.024 157.963C168.393 157.963 168.577 158.116 168.577 158.423C168.577 158.669 168.393 158.791 168.024 158.791C167.901 158.791 167.594 158.791 167.103 158.791C166.673 158.791 165.752 158.761 164.34 158.699C162.007 158.699 160.38 158.699 159.459 158.699C158.599 158.638 158.016 158.607 157.709 158.607C157.524 158.607 157.248 158.607 156.88 158.607C156.511 158.607 155.866 158.638 154.945 158.699C153.533 158.761 152.459 158.791 151.722 158.791C151.046 158.791 150.432 158.791 149.88 158.791C149.511 158.791 149.327 158.669 149.327 158.423C149.327 158.116 149.511 157.963 149.88 157.963C151.967 157.963 153.257 157.441 153.748 156.397C154.239 155.291 154.485 152.897 154.485 149.213V129.779C154.423 125.112 153.533 121.551 151.814 119.094C150.095 116.638 147.638 115.41 144.446 115.41C142.051 115.41 139.871 115.994 137.906 117.16C136.003 118.327 134.038 120.292 132.011 123.055V157.963H136.801C137.169 157.963 137.353 158.116 137.353 158.423C137.353 158.669 137.169 158.791 136.801 158.791C136.678 158.791 136.402 158.791 135.972 158.791C135.604 158.791 134.775 158.761 133.485 158.699C131.459 158.699 130.016 158.699 129.156 158.699C128.358 158.638 127.805 158.607 127.498 158.607C127.314 158.607 127.007 158.607 126.577 158.607C126.147 158.607 125.411 158.638 124.367 158.699Z" fill="white"/>
<path d="M204.693 149.673C202.36 152.866 199.597 155.353 196.404 157.134C193.272 158.853 189.987 159.712 186.549 159.712C181.207 159.712 176.816 157.778 173.378 153.91C169.939 149.98 168.22 145.037 168.22 139.081C168.22 131.344 170.768 124.866 175.865 119.647C180.961 114.428 187.132 111.818 194.378 111.818C196.22 111.818 198 112.095 199.72 112.647C201.439 113.138 203.097 113.906 204.693 114.95V96.8974C204.693 95.3623 204.632 94.1342 204.509 93.2132C204.386 92.2307 204.202 91.4632 203.956 90.9106C203.649 90.1738 203.158 89.7132 202.483 89.529C201.807 89.3448 200.518 89.4369 198.614 89.8053C198.246 89.8667 198.062 89.7746 198.062 89.529C198.062 89.222 198.246 89.0378 198.614 88.9764C200.579 88.608 202.79 87.9632 205.246 87.0422C207.702 86.0598 209.943 85.0159 211.969 83.9107C212.154 83.7879 212.491 83.8186 212.983 84.0028C213.535 84.187 213.812 84.3712 213.812 84.5554V147.831C213.812 152.743 214.057 155.66 214.548 156.581C215.101 157.502 216.421 157.963 218.509 157.963C218.877 157.963 219.061 158.116 219.061 158.423C219.061 158.669 218.877 158.791 218.509 158.791C215.5 158.791 212.86 158.853 210.588 158.976C208.377 159.16 206.566 159.405 205.154 159.712C204.785 159.774 204.509 159.743 204.325 159.62C204.141 159.498 204.048 159.252 204.048 158.884C204.048 158.822 204.048 158.73 204.048 158.607C204.048 158.484 204.079 158.239 204.141 157.87C204.325 156.151 204.448 154.677 204.509 153.449C204.632 152.16 204.693 150.901 204.693 149.673ZM191.154 113.476C186.61 113.476 183.141 115.257 180.746 118.818C178.413 122.38 177.246 127.63 177.246 134.568C177.246 140.831 178.628 145.989 181.391 150.042C184.154 154.033 187.777 156.028 192.259 156.028C194.592 156.028 196.834 155.384 198.983 154.094C201.132 152.743 203.035 150.84 204.693 148.384V122.134C202.728 119.432 200.549 117.314 198.154 115.779C195.821 114.244 193.487 113.476 191.154 113.476Z" fill="white"/>
<path d="M259.371 152.436C256.977 154.77 254.275 156.581 251.266 157.87C248.319 159.098 245.218 159.712 241.964 159.712C235.087 159.712 229.438 157.594 225.017 153.357C220.657 149.059 218.477 143.502 218.477 136.686C218.477 129.748 220.872 123.884 225.661 119.094C230.451 114.244 236.376 111.818 243.437 111.818C250.376 111.818 255.994 113.967 260.293 118.266C264.652 122.564 266.832 128.182 266.832 135.121C266.832 138.191 266.156 141.261 264.806 144.331C263.516 147.34 261.705 150.042 259.371 152.436ZM228.793 135.121C228.793 141.752 230.144 147.34 232.845 151.884C235.609 156.427 239.17 158.699 243.53 158.699C247.828 158.699 251.082 156.827 253.293 153.081C255.565 149.274 256.7 143.778 256.7 136.594C256.7 129.963 255.35 124.344 252.648 119.739C250.008 115.073 246.569 112.739 242.332 112.739C237.788 112.739 234.381 114.612 232.109 118.358C229.898 122.042 228.793 127.63 228.793 135.121Z" fill="white"/>
<path d="M277.966 158.607L268.019 158.791C267.528 158.791 267.129 158.699 266.822 158.515C266.576 158.27 266.515 157.993 266.638 157.686L297.861 113.752H287.73C281.958 113.814 277.567 115.288 274.559 118.173C271.611 120.998 269.984 125.265 269.677 130.976L269.401 136.226C269.401 136.533 269.247 136.686 268.94 136.686C268.695 136.686 268.572 136.533 268.572 136.226L268.848 130.976C269.094 124.958 269.309 120.507 269.493 117.621C269.677 114.673 269.8 113.169 269.861 113.108C270.107 112.985 270.598 112.893 271.335 112.831C272.133 112.77 273.085 112.739 274.19 112.739C274.866 112.739 276.339 112.77 278.611 112.831C280.883 112.831 284.813 112.831 290.401 112.831C293.532 112.893 295.589 112.924 296.572 112.924C297.554 112.924 298.137 112.924 298.322 112.924C298.567 112.924 298.997 112.924 299.611 112.924C300.286 112.862 301.484 112.801 303.203 112.739C304.861 112.739 305.966 112.739 306.519 112.739C307.133 112.678 307.563 112.647 307.808 112.647C308.177 112.647 308.361 112.862 308.361 113.292C308.361 113.66 308.177 114.09 307.808 114.581L277.414 157.686C279.502 157.748 281.62 157.809 283.769 157.87C285.98 157.87 287.545 157.87 288.466 157.87C293.993 157.87 298.383 156.274 301.637 153.081C304.953 149.827 306.856 145.283 307.348 139.45L307.808 133.739C307.808 133.432 307.962 133.309 308.269 133.371C308.576 133.371 308.699 133.524 308.637 133.831L308.085 140.186C307.716 144.178 307.348 148.199 306.979 152.252C306.672 156.243 306.457 158.3 306.335 158.423C306.15 158.607 305.69 158.73 304.953 158.791C304.278 158.791 302.067 158.791 298.322 158.791C296.172 158.791 293.379 158.791 289.94 158.791C286.563 158.73 282.572 158.669 277.966 158.607Z" fill="white"/>
<path d="M338.852 145.989C337.194 149.366 334.584 152.528 331.023 155.476C327.523 158.362 324.115 159.805 320.799 159.805C317.422 159.805 314.628 158.822 312.418 156.857C310.207 154.892 309.102 152.436 309.102 149.489C309.102 146.05 310.944 142.857 314.628 139.91C318.312 136.963 324.207 133.923 332.312 130.792L339.496 128.029C339.374 122.38 338.637 118.388 337.286 116.055C335.935 113.722 333.694 112.555 330.562 112.555C329.334 112.555 328.229 112.77 327.247 113.2C326.264 113.63 325.404 114.244 324.668 115.042C324.054 115.656 323.47 116.393 322.918 117.252C322.426 118.112 321.782 119.463 320.983 121.305C320.676 122.103 320.431 122.687 320.247 123.055C320.062 123.362 319.909 123.638 319.786 123.884C319.356 124.744 318.742 125.358 317.944 125.726C317.146 126.094 316.041 126.279 314.628 126.279C313.216 126.279 312.111 126.033 311.313 125.542C310.514 124.989 310.115 124.283 310.115 123.423C310.115 122.564 310.422 121.673 311.036 120.752C311.712 119.77 312.633 118.91 313.799 118.173C316.378 116.393 319.387 114.888 322.826 113.66C326.326 112.432 329.426 111.818 332.128 111.818C337.532 111.818 341.615 113.231 344.378 116.055C347.202 118.818 348.615 122.963 348.615 128.489C348.615 129.594 348.584 130.945 348.523 132.542C348.523 134.138 348.461 136.625 348.338 140.002C348.216 142.704 348.124 144.607 348.062 145.713C348.062 146.756 348.062 147.616 348.062 148.292C348.062 150.932 348.246 152.805 348.615 153.91C348.983 155.015 349.597 155.568 350.457 155.568C351.194 155.568 352.023 155.015 352.944 153.91C353.926 152.805 354.724 151.546 355.338 150.134C355.584 149.765 355.891 149.704 356.259 149.949C356.628 150.134 356.689 150.441 356.444 150.87C355.093 152.958 353.189 154.954 350.733 156.857C348.338 158.761 346.22 159.712 344.378 159.712C342.413 159.712 340.939 159.129 339.957 157.963C339.036 156.796 338.575 154.984 338.575 152.528C338.575 151.362 338.606 150.164 338.668 148.936C338.729 147.708 338.79 146.726 338.852 145.989ZM317.852 146.081C317.852 148.476 318.681 150.502 320.339 152.16C322.058 153.756 324.207 154.585 326.786 154.647C329.181 154.647 331.606 153.511 334.062 151.239C336.518 148.906 338.146 146.542 338.944 144.147C339.128 140.278 339.251 137.147 339.312 134.752C339.435 132.358 339.496 130.73 339.496 129.871V128.673L332.497 131.713C326.847 134.107 322.979 136.318 320.891 138.344C318.865 140.371 317.852 142.95 317.852 146.081Z" fill="white"/>
<path d="M15.6845 39.3718L17.5325 39.3718L15.1565 30.8518L12.9485 30.8518L10.5725 39.3718L12.4205 39.3718L12.8885 37.5238L15.2285 37.5238L15.6845 39.3718ZM14.0765 32.3518C14.2325 33.4438 14.4725 34.5598 14.8685 36.0958L13.2365 36.0958C13.6205 34.5598 13.8725 33.4438 14.0285 32.3518L14.0765 32.3518Z" fill="white"/>
<path d="M28.8979 39.3718L30.9499 39.3718L29.2459 35.6158C30.1579 35.2198 30.6739 34.4638 30.6739 33.4678C30.6739 31.8118 29.5699 30.8518 27.6619 30.8518L24.5539 30.8518L24.5539 39.3718L26.4379 39.3718L26.4379 35.9518L27.4459 35.9518L28.8979 39.3718ZM26.4379 32.2318L27.4219 32.2318C28.2499 32.2318 28.7059 32.6638 28.7059 33.4798C28.7059 34.2718 28.2619 34.7038 27.4219 34.7038L26.4379 34.7038L26.4379 32.2318Z" fill="white"/>
<path d="M44.2113 35.5918L44.2113 34.6318C44.2113 32.1478 43.1553 30.6478 40.9353 30.6478C38.7153 30.6478 37.6593 32.1478 37.6593 34.6318L37.6593 35.5918C37.6593 38.0758 38.7153 39.5758 40.9353 39.5758C41.0193 39.5758 41.0913 39.5758 41.1753 39.5638C41.5593 40.4998 42.2673 41.2198 43.3713 41.2198C43.6473 41.2198 43.8393 41.1958 44.1033 41.1478L44.1033 39.5878C43.8993 39.6358 43.7673 39.6718 43.5273 39.6718C43.2513 39.6718 42.7953 39.6238 42.4473 39.2758C43.6353 38.7238 44.2113 37.4278 44.2113 35.5918ZM39.5913 35.6638L39.5913 34.5598C39.5913 32.8798 39.9873 32.1358 40.9353 32.1358C41.8833 32.1358 42.2793 32.8798 42.2793 34.5598L42.2793 35.6638C42.2793 37.3438 41.8833 38.0878 40.9353 38.0878C39.9873 38.0878 39.5913 37.3438 39.5913 35.6638Z" fill="white"/>
<path d="M55.4567 37.2718L53.2967 37.2718L53.2967 39.3718L55.4567 39.3718L55.4567 37.2718Z" fill="white"/>
<path d="M10.3325 53.827L55.3271 53.827" stroke="#F1C115" stroke-width="2.58311"/>
</svg>
