<svg width="19" height="19" viewBox="0 0 19 19" fill="none" xmlns="http://www.w3.org/2000/svg">
<path d="M17.1914 1.09375C17.3555 1.14062 17.4961 1.22266 17.6133 1.33984C17.7539 1.43359 17.8594 1.55078 17.9297 1.69141C18 1.83203 18.0352 1.98438 18.0352 2.14844C18.0352 6.60156 16.4648 10.3984 13.3242 13.5391C10.1836 16.6797 6.38672 18.25 1.93359 18.25C1.69922 18.25 1.47656 18.168 1.26562 18.0039C1.05469 17.8398 0.925781 17.6406 0.878906 17.4062L0.0703125 13.8555C0.0234375 13.7383 0.0117188 13.6211 0.0351562 13.5039C0.0585938 13.3633 0.09375 13.2344 0.140625 13.1172C0.210938 13 0.292969 12.9062 0.386719 12.8359C0.480469 12.7422 0.585938 12.6602 0.703125 12.5898L4.5 10.9727C5.01562 10.7383 5.44922 10.8438 5.80078 11.2891L7.34766 13.1875C9.85547 11.9453 11.7305 10.0703 12.9727 7.5625L11.0742 6.01562C10.6289 5.66406 10.5234 5.23047 10.7578 4.71484L12.375 0.917969C12.4922 0.660156 12.668 0.472656 12.9023 0.355469C13.1367 0.238281 13.3828 0.214844 13.6406 0.285156L17.1914 1.09375ZM1.96875 17.125C3.98438 17.125 5.91797 16.7383 7.76953 15.9648C9.62109 15.168 11.2031 14.1016 12.5156 12.7656C13.8516 11.4297 14.918 9.84766 15.7148 8.01953C16.5117 6.16797 16.9102 4.22266 16.9102 2.18359L13.3945 1.375L11.7773 5.17188L14.3438 7.24609C13.5 9.07422 12.5273 10.5391 11.4258 11.6406C10.3242 12.7422 8.85938 13.7148 7.03125 14.5586L4.95703 11.9922L1.16016 13.6094L1.96875 17.125Z" fill="white"/>
</svg>
